<?xml version="1.0" standalone="no"?>
<!DOCTYPE svg PUBLIC "-//W3C//DTD SVG 20010904//EN"
 "http://www.w3.org/TR/2001/REC-SVG-20010904/DTD/svg10.dtd">
<svg version="1.0" xmlns="http://www.w3.org/2000/svg"
 width="512.000000pt" height="512.000000pt" viewBox="0 0 512.000000 512.000000"
 preserveAspectRatio="xMidYMid meet">
<metadata>
Created by potrace 1.11, written by Peter Selinger 2001-2013
</metadata>
<g transform="translate(0.000000,512.000000) scale(0.100000,-0.100000)"
fill="#000000" stroke="none">
<path d="M2345 5114 c-632 -67 -1168 -317 -1595 -744 -395 -395 -636 -877
-727 -1455 -22 -139 -25 -533 -5 -675 69 -490 244 -900 547 -1284 74 -93 79
-97 88 -75 49 132 1057 2953 1057 2960 0 5 -132 9 -316 9 l-316 0 7 33 c4 17
9 35 12 40 2 4 391 7 864 7 l861 0 -7 -32 c-4 -18 -9 -36 -12 -40 -2 -5 -136
-8 -296 -8 l-292 0 -59 -168 c-33 -92 -83 -230 -111 -308 -30 -82 -48 -147
-44 -155 5 -8 45 -431 90 -941 46 -510 85 -925 88 -922 3 3 222 434 486 957
l480 952 52 3 c48 3 53 1 57 -20 7 -31 166 -1825 166 -1865 0 -18 5 -33 10
-33 6 0 10 4 10 9 0 5 215 436 479 958 l479 948 41 3 c25 2 41 -1 41 -8 0 -6
-232 -467 -514 -1023 l-515 -1012 -45 -3 -44 -3 -7 53 c-13 118 -165 1814
-165 1850 0 21 -3 38 -7 38 -5 0 -228 -437 -497 -970 l-490 -970 -43 0 c-36 0
-43 3 -47 22 -3 13 -39 406 -81 873 -41 468 -79 872 -83 900 -7 49 -15 28
-462 -1219 -250 -698 -456 -1272 -458 -1276 -4 -11 185 -138 303 -203 194
-109 466 -211 686 -258 287 -61 519 31 809 321 140 139 241 273 379 499 l104
171 38 0 39 0 -25 -68 c-174 -483 -334 -936 -332 -939 8 -7 231 51 349 90 776
260 1372 864 1626 1647 86 267 117 476 117 790 -1 250 -11 346 -61 568 -139
620 -531 1189 -1070 1549 -317 213 -658 344 -1059 408 -97 16 -490 28 -580 19z"/>
</g>
</svg>
