<svg xmlns="http://www.w3.org/2000/svg" viewBox="0 0 176 55"><path fill="currentColor" d="M95.9 42.3c-4.5 0-6.3-1.8-6.3-4.3l1.6-.5c-.1 2.3 1.1 3.8 4.7 3.8 3.1 0 5.2-1.1 5.2-3.4 0-1.7-1-2.5-3.5-2.5H94c-2.3 0-3.3-1.3-3.3-2.7 0-1.2.6-2.3 1.6-3-1.6-.8-2.6-2.4-2.5-4.2 0-3.3 2.4-4.9 5.5-4.9h.5c1 0 2 .2 2.9.6l4.3-1.1.3 1.8h-3.6c1 .9 1.6 2.3 1.5 3.7 0 3.2-2.4 4.9-5.5 4.9h-.5c-.7 0-1.3-.1-2-.3-.7.4-1.2 1.2-1.2 2 0 .9.5 1.5 1.8 1.5h3.9c3 0 4.6 1.3 4.6 3.8.1 3.2-2.3 4.8-6.4 4.8zm3.3-16.7c0-3.2-1.6-4-3.4-4h-.5c-1.9 0-3.5.9-3.5 4s1.6 4 3.5 4h.5c1.8-.1 3.4-.9 3.4-4zm6-4.7h4v2.4c1.5-1.9 2.9-2.7 4.2-2.7 1.4 0 2.6.9 3.2 2.1l-1.5 1c-.6-1.3-1.3-1.8-2.4-1.8-1 0-2 .6-3.5 2.6v8.7c0 1.4 0 1.5.7 1.5l2.2.1v.8h-7v-.7l1.6-.1c.6-.1.7-.1.7-1.5v-9.9c0-1.4 0-1.4-.7-1.5l-1.6-.2.1-.8zm25.9 7.6c0 4.5-2.3 7.4-6.2 7.4-3.9 0-6.2-2.9-6.2-7.4v-.6c0-4.4 2.2-7.3 6.2-7.3s6.2 2.9 6.2 7.3v.6zm-6.2-7c-2.7 0-4.2 1.7-4.2 5.8v1.8c0 4.2 1.5 5.9 4.2 5.9s4.2-1.7 4.2-5.9v-1.8c-.1-4.1-1.6-5.8-4.2-5.8zm24.9 14.1h-4v-2.4c-1.2 1.6-3.1 2.6-5.2 2.7-2.8 0-4.4-1.9-4.4-5.1v-7.5c0-1.4 0-1.4-.7-1.5l-1.6-.2v-.8h4.1v9.8c0 3.1 1 4.1 2.8 4.1 1.5 0 3.1-.6 4.8-2.7v-8.8c0-1.4 0-1.4-.7-1.5l-2.2-.2v-.8h4.7V33c0 1.4 0 1.4.7 1.5l1.6.1.1 1zm2.2-14.7h4v2.3c1-1.6 2.8-2.6 4.7-2.6 3.5 0 5.4 2.7 5.4 7.3v.6c0 4.5-2.2 7.4-6.1 7.4-1.5 0-2.9-.6-3.9-1.6v5.4c0 1.4 0 1.4.7 1.5l2.2.2v.6h-7v-.8l1.6-.2c.6-.1.7-.1.7-1.5V23.3c0-1.4 0-1.4-.7-1.5l-1.6-.2v-.7zm4.1 3.6v8.2c.7 1.4 2.2 2.3 3.9 2.3 2.8 0 4-2.1 4-5.6V27c0-3.8-1.3-5.5-3.5-5.5-1.4 0-3 .6-4.4 3z"/><path fill="currentColor" d="M78.1 44.5c-.1.3-.5.5-.8.5h-.6l19.6-34.5c.2-.3.5-.5.9-.5h.6L78.1 44.5z"/><path fill="currentColor" d="M24.3 29.7c.1 1.7-.6 3.4-1.9 4.5-1.3.9-3.4 1.4-6.3 1.4h-6v-20c1.8-.2 3.7-.3 5.5-.3 2.7 0 4.7.4 6 1.2 1.3.9 2 2.4 1.9 3.9 0 .7-.1 1.4-.4 2-.2.6-.6 1.1-1 1.6-.4.4-1 .8-1.5 1 2.4.7 3.7 2.2 3.7 4.7zm-5.1-9.1c.1-.7-.3-1.5-.9-1.9-.8-.5-1.8-.7-2.7-.6h-.9l-.6.1v5.6h2c.8 0 1.7-.3 2.3-.9.5-.6.9-1.4.8-2.3zm-3.4 12c1.2.1 2.4-.1 3.4-.7.7-.6 1.1-1.5 1-2.4 0-2-1.3-3-3.9-3h-2.2v6l1.7.1zm18.6 5.5c-.6 2.7-3.1 4.6-5.8 4.4-.8 0-1.6-.1-2.3-.4-.5-.2-.8-.7-.8-1.3.1-.8.4-1.5.8-2.1.3.2.6.3.9.4.4.1.7.2 1.1.2.6 0 1.1-.2 1.5-.5.5-.5.8-1.1 1-1.7l.5-1.5h-1.9l-4.6-13.9c.7-.2 1.5-.4 2.3-.3 1.2-.1 2.2.7 2.4 1.9l2.7 9.3 2.2-8.1c.2-.9.6-1.7 1.2-2.4.5-.5 1.1-.7 1.8-.7s1.3.1 1.9.4l-4.9 16.3zm10.9-15.4c.4-.5.9-1 1.4-1.3.6-.3 1.2-.5 1.8-.5.6 0 1.2.1 1.7.4.4.2.6.6.6 1.1 0 .3-.1.6-.1.9-.1.4-.2.7-.4 1.1-.1.3-.3.7-.5 1-.3-.3-.7-.5-1.1-.7-.4-.1-.7-.2-1.1-.2-.6 0-1.1.2-1.5.5-.4.3-.6.8-.6 1.3v9.3h-4.1V21.3l.4-.1c.3 0 .7-.1 1-.1.6 0 1.2.1 1.7.4.5.3.7.8.8 1.2zm20.5 5.7c0 1.4-.3 2.8-.9 4.1-.5 1.1-1.4 2-2.4 2.6-1.2.6-2.5.9-3.8.9-1.9.1-3.8-.6-5.2-2-1.3-1.5-1.9-3.5-1.8-5.6 0-1.4.3-2.8.9-4 .6-1.1 1.4-2 2.5-2.6 1.1-.6 2.4-.9 3.7-.9 1.9-.1 3.8.6 5.1 2 1.4 1.6 2 3.5 1.9 5.5zm-4.1 0c0-2.9-.9-4.3-2.9-4.3-.9 0-1.8.4-2.2 1.2-.6 1-.8 2.1-.8 3.2-.1 1.2.2 2.3.8 3.3.5.8 1.3 1.2 2.2 1.2 2 0 3-1.5 2.9-4.6zm11.5 7.2h-4.1V21.3l.4-.1c.3 0 .7-.1 1-.1 1.5 0 2.3.5 2.5 1.6 1.1-1.3 2.7-2 4.4-1.9 1-.1 2.1.2 3 .8.8.5 1.3 1.4 1.4 2.3.2 1 .3 2.1.3 3.1v8.5H78v-8.3c0-.7 0-1.4-.2-2-.1-.3-.3-.6-.7-.8-.4-.2-.8-.3-1.3-.3-.7 0-1.3.1-1.9.5-.5.2-.7.7-.8 1.2v9.8z"/></svg>