<svg xmlns="http://www.w3.org/2000/svg" viewBox="0 0 435 107"><path fill="currentColor" d="M169.9 94.4c2.1 0 3.1.8 3.1 2.5 0 2.4-2.2 2.5-4.2 2.5h-2v-5h3.1zm-5 12.3h1.9V101h3.5c3 0 4.9-1.6 4.9-4.1 0-2.5-1.9-4.2-4.5-4.2h-5.8v14zm32.5-5.1h-5.6l2.8-6.4 2.8 6.4zm-9.7 5.1h2l1.5-3.4h7.1l1.5 3.4h1.9l-6.1-14h-1.7l-6.2 14zm33.9-12.4c1.9 0 2.9.7 2.9 2.2 0 1.5-1 2.2-2.7 2.2h-3.7v-4.4h3.5zm-5.4 12.4h1.9v-6.3h3.5l3.4 6.3h2.1l-3.5-6.6c2-.5 3-1.6 3-3.6 0-2.2-1.8-3.8-4.4-3.8h-6v14zm26.2-14h1.9v14h-1.9v-14zm17.7 3.9c0-3.1 2.3-4.3 4.9-4.3 4.4 0 5 2.7 5 4h-1.9c-.1-1.8-1.1-2.3-3.3-2.3-.8 0-2.9.2-2.9 2.1 0 1.6 1.8 2.1 3.7 2.6 2.3.6 4.9 1.1 4.9 4 0 2.5-1.7 4.5-5.2 4.5-5.6 0-5.8-3.2-5.7-4.6h1.9c0 1.2.4 2.9 3.8 2.9 1 0 3.3-.1 3.3-2.4 0-1.7-1.8-2.2-4.1-2.8-2.1-.5-4.4-1.2-4.4-3.7zm-9.1-60c0 21 22.3 36.6 50.9 36.6 29.1 0 50.9-15.6 50.9-36.6S330.4 0 301.9 0C272.3 0 251 16.1 251 36.6zm18.6 0c0-10.2 1.4-32.8 32.2-32.8 29.8 0 32.2 22.1 32.2 32.8 0 10.8-2 32.8-32.2 32.8-29.7 0-32.2-22-32.2-32.8zm84-35.3c-1.5 0-2.1.7-2.1 1.9v3h31.3c.6 0 1 .1 1 1v59.9c0 3.1 1.6 4.6 4.1 4.6h13.5V7.2c0-.8.3-1 1-1h30.8c1.5 0 2.1-.7 2.1-1.9v-3h-81.7zM216.4 38.9c8.4-9.7 10.8-12.3 34-37.7h-4.8c-1.8 0-2.3.4-4.4 2.8l-29.4 33.1-27-30.9c-3.6-3.8-6.9-4.9-13.2-4.9h-15.2c2.7 1.4 3.9 2.7 7.8 6.7 2.6 2.7 19.3 20.8 31.4 34.5V67c0 3.1 1.6 4.6 4.1 4.6h13.6V46.9c-.1-3.7.8-5.3 3.1-8zm-54.9 21.2c-9.2-13.6-27.4-44.7-30.8-51.1-3.6-6.9-5.9-7.8-10.8-7.8h-14.3c2 1.1 3.4 3.6 5.5 7.3-7.1 11.1-39.8 63-39.8 63h3.4c1.7 0 2.8-1 3.9-2.6 3.7-5.7 12.5-19.7 13.4-20.8 1.3-1.7 2.1-1.8 4.5-1.8h36.8c6.6 11.2 7.6 12.5 10.5 17.7 3.5 6.3 4.8 7.4 9.8 7.4h17.3c-2.7-.9-7.4-8.3-9.4-11.3zM95.1 42.3L113 13.6c.2-.4.7-.4 1 0 .2.3 16.8 28.8 16.8 28.8H95.1zM45 1.3H0c1.5.3 2.7 2 2.7 3.9V67c0 3.1 1.6 4.6 4.1 4.6h13.5V43.3c0-.8.3-1 1-1h24.5c22.7 0 35-8.2 35-22-.1-7.8-7.7-19-35.8-19zm-1 37.4H21.3c-.8 0-1-.2-1-1V4.9h19.6c14.1 0 22.6 4.1 22.6 16 0 11.4-6.8 17.8-18.5 17.8z"/></svg>